HIERARCHY
ROOT Hips
{
  OFFSET -4.35178 90.3298 111.633
  CHANNELS 6 Xposition Yposition Zposition Zrotation Xrotation Yrotation
  JOINT LeftUpLeg
  {
    OFFSET 0.103456 1.85784 10.5485
    CHANNELS 6 Xposition Yposition Zposition Zrotation Xrotation Yrotation
    JOINT LeftLeg
    {
      OFFSET 43.5 -4.2e-05 0
      CHANNELS 6 Xposition Yposition Zposition Zrotation Xrotation Yrotation
      JOINT LeftFoot
      {
        OFFSET 42.3722 1.9e-05 0
        CHANNELS 6 Xposition Yposition Zposition Zrotation Xrotation Yrotation
        JOINT LeftToe
        {
          OFFSET 17.3 0 0
          CHANNELS 6 Xposition Yposition Zposition Zrotation Xrotation Yrotation
          End Site
          {
            OFFSET 0 0 0
          }
        }
      }
    }
  }
  JOINT RightUpLeg
  {
    OFFSET 0.103456 1.85782 -10.5485
    CHANNELS 6 Xposition Yposition Zposition Zrotation Xrotation Yrotation
    JOINT RightLeg
    {
      OFFSET 43.5 -2.7e-05 0
      CHANNELS 6 Xposition Yposition Zposition Zrotation Xrotation Yrotation
      JOINT RightFoot
      {
        OFFSET 42.3723 0 0
        CHANNELS 6 Xposition Yposition Zposition Zrotation Xrotation Yrotation
        JOINT RightToe
        {
          OFFSET 17.3 0 1.7e-05
          CHANNELS 6 Xposition Yposition Zposition Zrotation Xrotation Yrotation
          End Site
          {
            OFFSET 0 0 0
          }
        }
      }
    }
  }
  JOINT Spine
  {
    OFFSET 6.90197 -2.60373 0
    CHANNELS 6 Xposition Yposition Zposition Zrotation Xrotation Yrotation
    JOINT Spine1
    {
      OFFSET 12.5881 0 0
      CHANNELS 6 Xposition Yposition Zposition Zrotation Xrotation Yrotation
      JOINT Spine2
      {
        OFFSET 12.3432 -1.8e-05 0
        CHANNELS 6 Xposition Yposition Zposition Zrotation Xrotation Yrotation
        JOINT Neck
        {
          OFFSET 25.8329 2.3e-05 0
          CHANNELS 6 Xposition Yposition Zposition Zrotation Xrotation Yrotation
          JOINT Head
          {
            OFFSET 11.7666 0 0
            CHANNELS 6 Xposition Yposition Zposition Zrotation Xrotation Yrotation
            End Site
            {
              OFFSET 0 0 0
            }
          }
        }
        JOINT LeftShoulder
        {
          OFFSET 19.7459 -1.48035 6.0001
          CHANNELS 6 Xposition Yposition Zposition Zrotation Xrotation Yrotation
          JOINT LeftArm
          {
            OFFSET 11.2841 1.8e-05 -2e-05
            CHANNELS 6 Xposition Yposition Zposition Zrotation Xrotation Yrotation
            JOINT LeftForeArm
            {
              OFFSET 33 -1.3e-05 1.9e-05
              CHANNELS 6 Xposition Yposition Zposition Zrotation Xrotation Yrotation
              JOINT LeftHand
              {
                OFFSET 25.2 3.2e-05 1.1e-05
                CHANNELS 6 Xposition Yposition Zposition Zrotation Xrotation Yrotation
                End Site
                {
                  OFFSET 0 0 0
                }
              }
            }
          }
        }
        JOINT RightShoulder
        {
          OFFSET 19.7461 -1.48036 -6.00008
          CHANNELS 6 Xposition Yposition Zposition Zrotation Xrotation Yrotation
          JOINT RightArm
          {
            OFFSET 11.2841 0 0
            CHANNELS 6 Xposition Yposition Zposition Zrotation Xrotation Yrotation
            JOINT RightForeArm
            {
              OFFSET 33.0001 1.6e-05 0
              CHANNELS 6 Xposition Yposition Zposition Zrotation Xrotation Yrotation
              JOINT RightHand
              {
                OFFSET 25.1998 0.000123 0.000432
                CHANNELS 6 Xposition Yposition Zposition Zrotation Xrotation Yrotation
                End Site
                {
                  OFFSET 0 0 0
                }
              }
            }
          }
        }
      }
    }
  }
}
MOTION
Frames:	11
Frame Time:	0.0333333
-51.576 80.2882 -83.645 -37.986 -77.4793 -115.688 0.103456 1.85784 10.5485 9.05599 20.1294 -175.887 43.5 -4.2e-05 1e-05 -46.4228 -9.68451 1.37323 42.3722 1.9e-05 7.10543e-15 86.74 -1.56008 0.434424 17.3 0 3e-06 21.4546 -1e-06 0.003093 0.103456 1.85782 -10.5485 -30.0755 -18.2888 178.696 43.5 -2.7e-05 4e-06 -52.2373 6.16965 8.72759 42.3723 0 1e-05 74.7057 -2.3422 0.998972 17.3 -6e-06 1.7e-05 21.4546 -1.9e-05 -0.003116 6.90197 -2.60373 -3e-06 10.7001 1.38846 -1.89584 12.5881 1e-05 8e-06 11.4087 2.51981 -4.02083 12.3432 -1.8e-05 -5e-06 11.0606 2.4361 -4.15259 25.8329 2.3e-05 7e-06 4.02699 -2.99002 -2.28657 11.7666 -8e-06 -6e-06 -14.3154 -11.7416 15.711 19.7459 -1.48035 6.0001 -175.541 -11.6741 -83.789 11.2841 1.8e-05 -2e-05 -3.31127 -15.2766 61.418 33 -1.3e-05 1.9e-05 -87.6271 -0.271056 -4.73386 25.2 3.2e-05 1.1e-05 76.9447 65.3193 -131.532 19.7461 -1.48036 -6.00008 -171.367 -4.32034 73.6311 11.2841 -7.10543e-15 -1e-06 -30.4928 -11.7196 -45.765 33.0001 1.6e-05 -1e-06 -119.902 -7.82621 21.4425 25.1998 0.000123 0.000432 -8.9556 -15.7638 14.2517 
-53.6192 79.5787 -89.1582 -56.1324 -73.5266 -133.3 0.103456 1.85784 10.5485 14.2029 23.7684 -178.317 43.5 -4.2e-05 1e-05 -48.0969 -10.1923 -0.516156 42.3722 1.9e-05 7.10543e-15 84.1506 -0.814729 0.434493 17.3 -7.10543e-15 3e-06 21.4546 -1e-06 0.003093 0.103456 1.85782 -10.5485 -21.4847 -24.2859 -177.172 43.5 -2.7e-05 4e-06 -37.271 11.5602 12.8425 42.3723 -1.42109e-14 1e-05 70.8865 -5.46998 2.5133 17.3 -6e-06 1.7e-05 21.4546 -1.9e-05 -0.003116 6.90197 -2.60373 -3e-06 10.6574 1.27331 -2.10726 12.5881 1e-05 8e-06 11.3247 2.24904 -4.4175 12.3432 -1.8e-05 -5e-06 10.9796 2.14004 -4.53185 25.8329 2.3e-05 7e-06 3.59599 -2.59493 -2.74399 11.7666 -8e-06 -6e-06 -12.5775 -10.8648 15.1857 19.7459 -1.48035 6.0001 -175.576 -11.962 -84.7345 11.2841 1.8e-05 -2e-05 -2.11789 -15.7387 61.7908 33 -1.3e-05 1.9e-05 -87.7046 -1.64741 -4.81827 25.2 3.2e-05 1.1e-05 72.7945 65.8345 -125.433 19.7461 -1.48036 -6.00008 -170.995 -3.94057 73.4759 11.2841 0 -1e-06 -29.6442 -15.0458 -45.6999 33.0001 1.6e-05 -1e-06 -118.833 -5.85568 23.3467 25.1998 0.000123 0.000432 -8.83715 -16.5303 14.1167 
-55.2423 78.9243 -94.8586 -65.0559 -69.0586 -141.513 0.103456 1.85784 10.5485 17.1887 25.9189 -178.888 43.5 -4.2e-05 1e-05 -53.0573 -8.90777 -3.1498 42.3722 1.9e-05 -7.10543e-15 76.0366 2.45568 -2.65938 17.3 0 3e-06 21.4546 -1e-06 0.003093 0.103456 1.85782 -10.5485 -12.8517 -31.3008 -173.403 43.5 -2.7e-05 4e-06 -31.5834 18.5699 14.8441 42.3723 7.10543e-15 1e-05 70.8078 -10.9761 -1.43723 17.3 -6e-06 1.7e-05 21.4546 -1.9e-05 -0.003116 6.90197 -2.60373 -3e-06 10.5318 1.23729 -2.2742 12.5881 1e-05 8e-06 11.0751 2.14649 -4.74035 12.3432 -1.8e-05 -5e-06 10.7309 2.01388 -4.84775 25.8329 2.3e-05 7e-06 3.14702 -2.54075 -2.93984 11.7666 -8e-06 -6e-06 -11.367 -10.7482 14.5653 19.7459 -1.48035 6.0001 -175.56 -12.7058 -85.7788 11.2841 1.8e-05 -2e-05 -1.63056 -15.4151 61.3502 33 -1.3e-05 1.9e-05 -89.9745 -3.91345 -5.09769 25.2 3.2e-05 1.1e-05 69.3261 65.6986 -120.227 19.7461 -1.48036 -6.00008 -169.936 -2.82918 73.6833 11.2841 1.42109e-14 -1e-06 -27.8998 -18.4144 -45.1518 33.0001 1.6e-05 -1e-06 -120.56 -3.34646 25.0388 25.1998 0.000123 0.000432 -9.00297 -15.4544 12.7052 
-56.3345 78.2269 -100.434 -69.5577 -65.5965 -145.737 0.103456 1.85784 10.5485 14.9133 25.6419 -174.224 43.5 -4.2e-05 1e-05 -61.7287 -4.94879 -6.34704 42.3722 1.9e-05 -1.42109e-14 65.2231 13.8552 -12.3674 17.3 1.42109e-14 3e-06 21.4546 -1e-06 0.003093 0.103456 1.85782 -10.5485 -8.47261 -31.972 -172.176 43.5 -2.7e-05 4e-06 -33.3911 21.3922 15.2989 42.3723 0 1e-05 80.1505 -17.2575 -0.964906 17.3 -6e-06 1.7e-05 21.4546 -1.9e-05 -0.003116 6.90197 -2.60373 -3e-06 10.3924 1.14274 -2.27616 12.5881 1e-05 8e-06 10.7939 1.9606 -4.7235 12.3432 -1.8e-05 -5e-06 10.4523 1.82515 -4.81951 25.8329 2.3e-05 7e-06 2.49796 -2.59959 -2.84319 11.7666 -8e-06 -6e-06 -11.6542 -11.1679 14.2073 19.7459 -1.48035 6.0001 -175.874 -13.6769 -86.8256 11.2841 1.8e-05 -2e-05 -1.61507 -15.3812 60.6463 33 -1.3e-05 1.9e-05 -92.6626 -4.6082 -5.32113 25.2 3.2e-05 1.1e-05 67.0807 65.4734 -116.425 19.7461 -1.48036 -6.00008 -168.262 -2.0981 73.5065 11.2841 0 -1e-06 -24.9949 -20.5576 -43.9248 33.0001 1.6e-05 -1e-06 -123.045 -1.97176 26.3891 25.1998 0.000123 0.000432 -8.62927 -14.4854 11.5317 
-57.0999 77.2008 -105.691 -72.965 -61.4884 -149.639 0.103456 1.85784 10.5485 10.6582 23.6567 -167.907 43.5 -4.2e-05 1e-05 -70.3432 -3.46014 -8.24648 42.3722 1.9e-05 0 65.6801 33.7029 -26.5447 17.3 7.10543e-15 3e-06 21.4546 -1e-06 0.003093 0.103456 1.85782 -10.5485 -8.26977 -26.2476 -170.881 43.5 -2.7e-05 4e-06 -38.6591 23.4516 12.7696 42.3723 1.42109e-14 1e-05 89.8326 -14.9205 0.270479 17.3 -6e-06 1.7e-05 21.4546 -1.9e-05 -0.003116 6.90197 -2.60373 -3e-06 10.5193 1.14576 -2.1135 12.5881 1e-05 8e-06 11.0456 1.99642 -4.40227 12.3432 -1.8e-05 -5e-06 10.7039 1.8846 -4.50111 25.8329 2.3e-05 7e-06 1.83282 -2.91366 -2.459 11.7666 -8e-06 -6e-06 -14.0044 -12.0808 13.9286 19.7459 -1.48035 6.0001 -176.346 -14.26 -87.3728 11.2841 1.8e-05 -2e-05 -0.271285 -16.6338 60.5277 33 -1.3e-05 1.9e-05 -94.8028 -3.68688 -5.31396 25.2 3.2e-05 1.1e-05 59.4338 66.0613 -105.371 19.7461 -1.48036 -6.00008 -166.846 -2.23682 73.5522 11.2841 0 -1e-06 -21.9298 -19.9645 -42.1361 33.0001 1.6e-05 -1e-06 -124.586 -1.72014 27.1022 25.1998 0.000123 0.000432 -8.05068 -13.8762 10.7746 
-57.5899 76.231 -110.225 -75.7898 -56.569 -153.592 0.103456 1.85784 10.5485 5.93076 20.7295 -163.046 43.5 -4.2e-05 1e-05 -79.0487 -6.58092 -8.09761 42.3722 1.9e-05 0 69.9 43.0516 -32.6507 17.3 0 3e-06 21.4546 -1e-06 0.003093 0.103456 1.85782 -10.5485 -8.88808 -22.9151 -169.516 43.5 -2.7e-05 4e-06 -45.8613 25.5065 10.1623 42.3723 0 1e-05 94.7381 -12.5265 0.384678 17.3 -6e-06 1.7e-05 21.4546 -1.9e-05 -0.003116 6.90197 -2.60373 -3e-06 10.7304 1.03737 -1.79089 12.5881 1e-05 8e-06 11.4612 1.8423 -3.74176 12.3432 -1.8e-05 -5e-06 11.122 1.77804 -3.83243 25.8329 2.3e-05 7e-06 1.70554 -3.73092 -1.73655 11.7666 -8e-06 -6e-06 -16.1623 -13.2023 13.5121 19.7459 -1.48035 6.0001 -176.714 -14.5838 -87.0933 11.2841 1.8e-05 -2e-05 2.36162 -17.9454 61.0541 33 -1.3e-05 1.9e-05 -93.8743 -3.44306 -5.25692 25.2 3.2e-05 1.1e-05 45.2929 65.9408 -86.1433 19.7461 -1.48036 -6.00008 -167.04 -3.01464 74.0428 11.2841 1.42109e-14 -1e-06 -20.4433 -17.8072 -39.8275 33.0001 1.6e-05 -1e-06 -123.53 -2.39519 26.6931 25.1998 0.000123 0.000432 -8.09079 -15.3168 12.0473 
-57.6082 75.912 -113.838 -78.3233 -52.6649 -157.366 0.103456 1.85784 10.5485 -0.806664 16.549 -159.713 43.5 -4.2e-05 1e-05 -86.1773 -11.2761 -4.94669 42.3722 1.9e-05 1.42109e-14 68.9635 40.2159 -25.6977 17.3 -7.10543e-15 3e-06 21.4546 -1e-06 0.003093 0.103456 1.85782 -10.5485 -9.17364 -20.1622 -168.095 43.5 -2.7e-05 4e-06 -50.4942 26.8471 8.13528 42.3723 0 1e-05 96.4742 -11.2455 1.23687 17.3 -6e-06 1.7e-05 21.4546 -1.9e-05 -0.003116 6.90197 -2.60373 -3e-06 10.7743 0.603909 -1.44333 12.5881 1e-05 8e-06 11.5403 1.0501 -2.96355 12.3432 -1.8e-05 -5e-06 11.2119 1.03685 -3.00693 25.8329 2.3e-05 7e-06 2.28585 -4.19659 -1.31634 11.7666 -8e-06 -6e-06 -16.9851 -13.4817 13.7605 19.7459 -1.48035 6.0001 -176.987 -14.5409 -86.8197 11.2841 1.8e-05 -2e-05 5.31234 -18.9537 62.0668 33 -1.3e-05 1.9e-05 -88.446 -3.15671 -5.08119 25.2 3.2e-05 1.1e-05 31.3066 64.0718 -67.0039 19.7461 -1.48036 -6.00008 -168.535 -4.21894 74.6686 11.2841 0 -1e-06 -21.6505 -14.5014 -38.4213 33.0001 1.6e-05 -1e-06 -119.377 -3.5862 25.5148 25.1998 0.000123 0.000432 -8.05932 -17.5427 14.1393 
-57.2538 76.1203 -117.124 -80.4362 -49.5346 -160.488 0.103456 1.85784 10.5485 -8.44051 12.285 -158.345 43.5 -4.2e-05 1e-05 -89.3506 -15.1275 -0.13011 42.3722 1.9e-05 0 62.8056 33.792 -12.2753 17.3 -1.42109e-14 3e-06 21.4546 -1e-06 0.003093 0.103456 1.85782 -10.5485 -7.95205 -17.2972 -166.624 43.5 -2.7e-05 4e-06 -51.5952 27.8895 6.80347 42.3723 0 1e-05 97.794 -9.06442 2.16624 17.3 -6e-06 1.7e-05 21.4546 -1.9e-05 -0.003116 6.90197 -2.60373 -3e-06 10.7507 0.0966358 -1.11858 12.5881 1e-05 8e-06 11.4903 0.106643 -2.21545 12.3432 -1.8e-05 -5e-06 11.175 0.140879 -2.20197 25.8329 2.3e-05 7e-06 2.87817 -4.66485 -0.949832 11.7666 -8e-06 -6e-06 -16.64 -13.4473 14.1384 19.7459 -1.48035 6.0001 -177.363 -14.5023 -86.7484 11.2841 1.8e-05 -2e-05 7.4367 -19.6784 63.0025 33 -1.3e-05 1.9e-05 -80.757 -1.34924 -4.6987 25.2 3.2e-05 1.1e-05 23.3134 62.2832 -55.391 19.7461 -1.48036 -6.00008 -169.225 -5.8861 74.9876 11.2841 0 -1e-06 -23.473 -10.2461 -38.4464 33.0001 1.6e-05 -1e-06 -116.353 -6.06136 24.0163 25.1998 0.000123 0.000432 -7.7301 -18.4405 15.1619 
-56.5936 76.8117 -120.263 -82.6579 -46.3444 -163.274 0.103456 1.85784 10.5485 -15.7771 9.40938 -159.171 43.5 -4.2e-05 1e-05 -88.4845 -17.3285 4.50241 42.3722 1.9e-05 0 60.088 20.8059 3.97928 17.3 0 3e-06 21.4546 -1e-06 0.003093 0.103456 1.85782 -10.5485 -5.40901 -14.6988 -166.159 43.5 -2.7e-05 4e-06 -49.9406 28.1147 6.68586 42.3723 -7.10543e-15 1e-05 99.0326 -8.16833 3.17995 17.3 -6e-06 1.7e-05 21.4546 -1.9e-05 -0.003116 6.90197 -2.60373 -3e-06 10.7305 -0.0947162 -0.916246 12.5881 1e-05 8e-06 11.4507 -0.233326 -1.77467 12.3432 -1.8e-05 -5e-06 11.1398 -0.171719 -1.74096 25.8329 2.3e-05 7e-06 3.21362 -5.2849 -0.554237 11.7666 -8e-06 -6e-06 -16.3369 -13.7076 14.3739 19.7459 -1.48035 6.0001 -177.658 -14.431 -86.7755 11.2841 1.8e-05 -2e-05 8.21672 -19.8574 63.214 33 -1.3e-05 1.9e-05 -75.6988 0.439603 -4.44232 25.2 3.2e-05 1.1e-05 16.1995 60.1445 -44.9981 19.7461 -1.48036 -6.00008 -168.664 -7.42465 75.5112 11.2841 -1.42109e-14 -1e-06 -24.7403 -6.12754 -40.1182 33.0001 1.6e-05 -1e-06 -117.44 -7.27823 22.668 25.1998 0.000123 0.000432 -7.64011 -16.4168 14.0324 
-55.3204 78.0968 -123.05 -84.9177 -42.3685 -166.239 0.103456 1.85784 10.5485 -21.1598 7.6209 -160.155 43.5 -4.2e-05 1e-05 -83.1359 -19.8234 8.0514 42.3722 1.9e-05 1.42109e-14 66.7038 10.0469 13.3573 17.3 0 3e-06 21.4546 -1e-06 0.003093 0.103456 1.85782 -10.5485 -2.3549 -11.4501 -165.114 43.5 -2.7e-05 4e-06 -46.4797 27.8478 5.52779 42.3723 0 1e-05 98.2634 -7.69347 4.42391 17.3 -6e-06 1.7e-05 21.4546 -1.9e-05 -0.003116 6.90197 -2.60373 -3e-06 10.7512 0.13689 -0.800827 12.5881 1e-05 8e-06 11.49 0.250554 -1.59162 12.3432 -1.8e-05 -5e-06 11.1714 0.323127 -1.58823 25.8329 2.3e-05 7e-06 3.35845 -5.85338 -0.0525387 11.7666 -8e-06 -6e-06 -17.1912 -14.573 14.9377 19.7459 -1.48035 6.0001 -177.283 -14.2851 -86.3961 11.2841 1.8e-05 -2e-05 9.15534 -19.4024 63.1349 33 -1.3e-05 1.9e-05 -76.1962 -0.345427 -4.30706 25.2 3.2e-05 1.1e-05 12.5105 58.8125 -40.1292 19.7461 -1.48036 -6.00008 -168.218 -8.44821 76.5735 11.2841 0 -1e-06 -26.4147 -3.96195 -42.1356 33.0001 1.6e-05 -1e-06 -120.462 -6.30443 21.5938 25.1998 0.000123 0.000432 -7.64878 -13.1914 12.1841 
-53.7539 79.7408 -125.831 -87.4422 -38.0485 -168.787 0.103456 1.85784 10.5485 -24.7823 5.70885 -161.489 43.5 -4.2e-05 1e-05 -74.9016 -19.4409 9.72072 42.3722 1.9e-05 -2.84217e-14 70.3774 6.50313 13.574 17.3 -7.10543e-15 3e-06 21.4546 -1e-06 0.003093 0.103456 1.85782 -10.5485 0.148436 -8.08777 -165.373 43.5 -2.7e-05 4e-06 -42.7691 26.6686 5.04997 42.3723 0 1e-05 95.6532 -8.53204 5.06033 17.3 -6e-06 1.7e-05 21.4546 -1.9e-05 -0.003116 6.90197 -2.60373 -3e-06 10.749 0.493421 -0.845736 12.5881 1e-05 8e-06 11.4836 0.950635 -1.75259 12.3432 -1.8e-05 -5e-06 11.1553 1.01168 -1.79213 25.8329 2.3e-05 7e-06 3.24643 -6.56642 0.534636 11.7666 -8e-06 -6e-06 -18.2666 -15.8908 15.4126 19.7459 -1.48035 6.0001 -176.538 -14.271 -86.1786 11.2841 1.8e-05 -2e-05 10.507 -18.9193 63.7098 33 -1.3e-05 1.9e-05 -79.385 -1.5199 -4.285 25.2 3.2e-05 1.1e-05 15.5773 61.2034 -46.3204 19.7461 -1.48036 -6.00008 -167.868 -9.4689 78.0657 11.2841 1.42109e-14 -1e-06 -28.3668 -3.25112 -43.5371 33.0001 1.6e-05 -1e-06 -123.477 -5.977 20.3019 25.1998 0.000123 0.000432 -8.0282 -11.0519 10.9943 
